<svg width="54" height="42" viewBox="0 0 54 42" fill="none" xmlns="http://www.w3.org/2000/svg">
<path d="M25.1666 4.97903L14.2539 17.1084C13.8234 17.5857 13.8421 18.3251 14.3007 18.7837C17.1552 21.6382 21.788 21.6382 24.6425 18.7837L27.6187 15.8075C28.0118 15.4144 28.5078 15.1992 29.0132 15.1617C29.6496 15.1056 30.3047 15.3208 30.7914 15.8075L47.3195 32.1953L53.9083 26.9542V0L43.4262 5.98982L41.1987 4.50172C39.7208 3.51872 37.9853 2.99448 36.2103 2.99491H29.6215C29.5186 2.99491 29.4063 2.99491 29.3033 3.00427C27.7216 3.0885 26.2335 3.79979 25.1666 4.97903ZM10.9127 14.1041L20.9082 2.99491H17.202C14.8154 2.99491 12.5318 3.94018 10.8472 5.62481L10.4822 5.98982L0 0V26.9542L14.6376 39.1491C16.7902 40.946 19.5043 41.9287 22.3027 41.9287H23.7721L23.1169 41.2736C22.2372 40.3938 22.2372 38.9712 23.1169 38.1008C23.9967 37.2305 25.4193 37.2211 26.2897 38.1008L30.1269 41.9381H30.9692C32.7568 41.9381 34.507 41.5356 36.098 40.7869L33.5991 38.2787C32.7194 37.3989 32.7194 35.9763 33.5991 35.1059C34.4789 34.2355 35.9015 34.2262 36.7719 35.1059L39.7668 38.1008L41.4046 36.463C42.2376 35.6301 42.4809 34.4227 42.1159 33.3652L29.2097 20.5619L27.8152 21.9564C23.2012 26.5705 15.7326 26.5705 11.1186 21.9564C8.96601 19.8038 8.88177 16.3503 10.9127 14.0948V14.1041Z" fill="#333333"/>
</svg>
