<svg width="50" height="50" viewBox="0 0 50 50" fill="none" xmlns="http://www.w3.org/2000/svg">
<path d="M12.4789 31.1971C11.8169 31.1971 11.1821 31.46 10.7141 31.9281C10.246 32.3961 9.9831 33.0309 9.9831 33.6929V38.1403C6.76587 34.5027 4.99046 29.8139 4.99159 24.9577C4.98866 24.2236 5.03201 23.4901 5.12137 22.7614C5.16899 22.4322 5.15031 22.0968 5.06644 21.7749C4.98257 21.453 4.83519 21.1511 4.63298 20.887C4.43076 20.6229 4.17779 20.4018 3.88892 20.2369C3.60006 20.0719 3.28113 19.9664 2.95089 19.9265C2.62065 19.8865 2.28576 19.913 1.9659 20.0044C1.64605 20.0957 1.34768 20.2501 1.08835 20.4584C0.829009 20.6667 0.613932 20.9248 0.455759 21.2174C0.297587 21.5101 0.19951 21.8314 0.167293 22.1625C0.0534731 23.0898 -0.00237404 24.0234 7.73095e-05 24.9577C0.00259541 30.9132 2.14319 36.6699 6.03232 41.1801H2.49583C1.83392 41.1801 1.19911 41.4431 0.731068 41.9111C0.263023 42.3792 7.73095e-05 43.014 7.73095e-05 43.6759C7.73095e-05 44.3378 0.263023 44.9726 0.731068 45.4406C1.19911 45.9087 1.83392 46.1716 2.49583 46.1716H12.4789C12.8692 46.167 13.2528 46.0689 13.5976 45.8857C13.9423 45.7025 14.2382 45.4394 14.4605 45.1184L14.5528 45.0111C14.5703 44.9862 14.5703 44.9562 14.5853 44.9312C14.7031 44.73 14.7922 44.5133 14.8498 44.2873C14.8868 44.1599 14.9135 44.0297 14.9297 43.898C14.9372 43.8231 14.9746 43.7557 14.9746 43.6759V33.6929C14.9746 33.0309 14.7117 32.3961 14.2436 31.9281C13.7756 31.46 13.1408 31.1971 12.4789 31.1971ZM16.2225 9.98317H11.7726C15.4108 6.76536 20.1006 4.98992 24.9576 4.99165C25.6918 4.98955 26.4253 5.03373 27.1539 5.12393C27.8115 5.20336 28.4738 5.0183 28.9949 4.60946C29.5161 4.20062 29.8535 3.6015 29.9329 2.94388C30.0124 2.28627 29.8273 1.62404 29.4185 1.10287C29.0096 0.5817 28.4105 0.244288 27.7529 0.164858C26.8255 0.0518725 25.8919 -0.00314101 24.9576 0.000138373C19.0022 0.00265647 13.2455 2.14325 8.73523 6.03238V2.4959C8.73523 1.83398 8.47228 1.19917 8.00424 0.731129C7.53619 0.263083 6.90138 0.000138373 6.23947 0.000138373C5.57755 0.000138373 4.94275 0.263083 4.4747 0.731129C4.00666 1.19917 3.74371 1.83398 3.74371 2.4959V12.4789C3.75991 12.644 3.79251 12.807 3.84105 12.9656C3.90305 13.273 4.02244 13.5659 4.19295 13.8291L4.2229 13.8716C4.38862 14.1101 4.5947 14.3179 4.83186 14.4855C4.85932 14.5055 4.87429 14.5354 4.90174 14.5554C4.93668 14.5803 4.97662 14.5878 5.01405 14.6078C5.15647 14.6924 5.30696 14.7626 5.46329 14.8174C5.67355 14.8904 5.89262 14.9349 6.11468 14.9497C6.1596 14.9497 6.19455 14.9747 6.23947 14.9747H16.2225C16.8844 14.9747 17.5192 14.7117 17.9873 14.2437C18.4553 13.7756 18.7183 13.1408 18.7183 12.4789C18.7183 11.817 18.4553 11.1822 17.9873 10.7142C17.5192 10.2461 16.8844 9.98317 16.2225 9.98317ZM46.0717 36.9473C46.0094 36.6408 45.8901 36.3487 45.7198 36.0863L45.6924 36.0439C45.5259 35.8051 45.319 35.5973 45.0809 35.4299C45.0535 35.4099 45.041 35.38 45.0111 35.36C44.9861 35.3426 44.9536 35.3426 44.9262 35.3251C44.6084 35.151 44.2617 35.036 43.9029 34.9857C43.8231 34.9782 43.7557 34.9407 43.6758 34.9407H33.6928C33.0309 34.9407 32.3961 35.2037 31.928 35.6717C31.46 36.1398 31.197 36.7746 31.197 37.4365C31.197 38.0984 31.46 38.7332 31.928 39.2013C32.3961 39.6693 33.0309 39.9322 33.6928 39.9322H38.1402C34.5027 43.1495 29.8138 44.9249 24.9576 44.9238C24.2234 44.925 23.4899 44.88 22.7614 44.789C22.1038 44.7096 21.4415 44.8946 20.9204 45.3035C20.3992 45.7123 20.0618 46.3114 19.9824 46.969C19.9029 47.6266 20.088 48.2889 20.4968 48.81C20.9057 49.3312 21.5048 49.6686 22.1624 49.7481C23.0898 49.8619 24.0233 49.9177 24.9576 49.9153C30.9131 49.9128 36.6698 47.7722 41.1801 43.883V47.4195C41.1801 48.0814 41.443 48.7162 41.9111 49.1843C42.3791 49.6523 43.0139 49.9153 43.6758 49.9153C44.3377 49.9153 44.9725 49.6523 45.4406 49.1843C45.9086 48.7162 46.1716 48.0814 46.1716 47.4195V37.4365C46.1546 37.2714 46.1211 37.1058 46.0717 36.9473ZM47.4195 8.73529C48.0814 8.73529 48.7162 8.47234 49.1842 8.0043C49.6523 7.53625 49.9152 6.90145 49.9152 6.23953C49.9152 5.57761 49.6523 4.94281 49.1842 4.47476C48.7162 4.00672 48.0814 3.74377 47.4195 3.74377H37.4364C37.2739 3.76046 37.1134 3.79306 36.9572 3.84111L36.9398 3.8436C36.6378 3.90662 36.35 4.02509 36.0912 4.19301L36.0413 4.22545C35.8037 4.3914 35.5968 4.59747 35.4298 4.83442C35.4099 4.85938 35.3799 4.87435 35.36 4.9018C35.3425 4.92676 35.3425 4.95921 35.325 4.98666C35.1501 5.30671 35.035 5.65602 34.9856 6.01741C34.9781 6.09228 34.9407 6.15967 34.9407 6.23953V16.2226C34.9407 16.8845 35.2036 17.5193 35.6717 17.9873C36.1397 18.4554 36.7745 18.7183 37.4364 18.7183C38.0983 18.7183 38.7331 18.4554 39.2012 17.9873C39.6692 17.5193 39.9322 16.8845 39.9322 16.2226V11.7726C43.148 15.412 44.9231 20.1011 44.9237 24.9577C44.9258 25.6918 44.8816 26.4254 44.7914 27.154C44.7118 27.8109 44.8963 28.4726 45.3045 28.9935C45.7126 29.5144 46.3108 29.8519 46.9677 29.9317C47.0688 29.9438 47.1705 29.9496 47.2722 29.9492C47.8815 29.9481 48.4693 29.7242 48.9249 29.3197C49.3805 28.9151 49.6724 28.3578 49.7455 27.753C49.8602 26.8256 49.9168 25.8921 49.9152 24.9577C49.9127 19.0022 47.7721 13.2456 43.883 8.73529H47.4195Z" fill="#333333"/>
</svg>
