<svg width="54" height="48" viewBox="0 0 54 48" fill="none" xmlns="http://www.w3.org/2000/svg">
<path d="M26.9542 0C30.2579 0 32.944 2.68606 32.944 5.98982C32.944 9.29357 30.2579 11.9796 26.9542 11.9796C23.6504 11.9796 20.9644 9.29357 20.9644 5.98982C20.9644 2.68606 23.6504 0 26.9542 0ZM35.9389 29.2003C35.9389 31.5401 34.7503 33.5991 32.944 34.8064V38.9338H20.9644V34.8064C19.1581 33.5991 17.9695 31.5401 17.9695 29.2003V25.4567C17.9695 20.4964 21.9939 16.472 26.9542 16.472C31.9145 16.472 35.9389 20.4964 35.9389 25.4567V29.2003ZM37.4364 38.9338V36.3788C39.2988 34.273 40.4313 31.4933 40.4313 28.4516V25.4567C40.4313 22.9578 39.7481 20.6274 38.5688 18.6152C39.6077 18.1941 40.7401 17.9694 41.9287 17.9694C46.889 17.9694 50.9134 21.9939 50.9134 26.9542V29.9491C50.9134 32.1672 49.7061 34.1045 47.9185 35.134V38.9338H37.4364ZM5.98982 35.134C4.20223 34.1045 2.99491 32.1672 2.99491 29.9491V26.9542C2.99491 21.9939 7.01932 17.9694 11.9796 17.9694C13.1682 17.9694 14.3007 18.2034 15.3395 18.6152C14.1603 20.6181 13.4771 22.9578 13.4771 25.4567V28.4516C13.4771 31.4933 14.6095 34.2636 16.472 36.3788V38.9338H5.98982V35.134ZM11.9796 2.99491C14.8716 2.99491 17.2207 5.34404 17.2207 8.236C17.2207 11.128 14.8716 13.4771 11.9796 13.4771C9.08768 13.4771 6.73854 11.128 6.73854 8.236C6.73854 5.34404 9.08768 2.99491 11.9796 2.99491ZM41.9287 2.99491C44.8207 2.99491 47.1698 5.34404 47.1698 8.236C47.1698 11.128 44.8207 13.4771 41.9287 13.4771C39.0368 13.4771 36.6876 11.128 36.6876 8.236C36.6876 5.34404 39.0368 2.99491 41.9287 2.99491ZM2.24618 43.4262H51.6622C52.9069 43.4262 53.9084 44.4276 53.9084 45.6723C53.9084 46.9171 52.9069 47.9185 51.6622 47.9185H2.24618C1.00142 47.9185 0 46.9171 0 45.6723C0 44.4276 1.00142 43.4262 2.24618 43.4262Z" fill="#333333"/>
</svg>
